PathFileType	4	(X/Y/Z)	 s10c0101.trc
DataRate	CameraRate	NumFrames	NumMarkers	Units	OrigDataRate	OrigDataStartFrame	OrigNumFrames
200	200	6	49	mm	200	751	2000
Frame#	Time	racr			lacr			c7			jug			rlel			rdr			llel			ldr			s2			lic			ric			lasi			rasi			rpsi			lpsi			rgt			lgt			rth1			rth2			rth3			rth4			rlfc			rmfc			rsh1			rsh2			rsh3			rsh4			rlmal			rmmal			rcal			rtoe			rmt5			lth1			lth2			lth4			lth3			llfc			lmfc			llmal			lcal			lmt5			lsh1			lsh2			lsh3			lsh4			ltoe			SBIKE			LBIKE			RBIKE			
		X1	Y1	Z1	X2	Y2	Z2	X3	Y3	Z3	X4	Y4	Z4	X5	Y5	Z5	X6	Y6	Z6	X7	Y7	Z7	X8	Y8	Z8	X9	Y9	Z9	X10	Y10	Z10	X11	Y11	Z11	X12	Y12	Z12	X13	Y13	Z13	X14	Y14	Z14	X15	Y15	Z15	X16	Y16	Z16	X17	Y17	Z17	X18	Y18	Z18	X19	Y19	Z19	X20	Y20	Z20	X21	Y21	Z21	X22	Y22	Z22	X23	Y23	Z23	X24	Y24	Z24	X25	Y25	Z25	X26	Y26	Z26	X27	Y27	Z27	X28	Y28	Z28	X29	Y29	Z29	X30	Y30	Z30	X31	Y31	Z31	X32	Y32	Z32	X33	Y33	Z33	X34	Y34	Z34	X35	Y35	Z35	X36	Y36	Z36	X37	Y37	Z37	X38	Y38	Z38	X39	Y39	Z39	X40	Y40	Z40	X41	Y41	Z41	X42	Y42	Z42	X43	Y43	Z43	X44	Y44	Z44	X45	Y45	Z45	X46	Y46	Z46	X47	Y47	Z47	X48	Y48	Z48	X49	Y49	Z49	
751	3.7550	425.835859	1249.322320	-3.577041	464.732439	1270.884860	-311.454848	405.590167	1316.208550	-168.935932	398.148859	1162.821497	-170.570891	425.763969	978.797481	46.975739	632.728778	888.550090	-10.466947	491.635355	1019.280129	-435.440790	655.377967	877.537777	-369.301006	-113.565521	1105.310023	-230.791355	63.098608	1112.651685	-370.010312	53.734524	1127.858673	-72.926307	82.700634	1029.267519	-333.754536	47.247249	1046.703297	-76.367389	-78.639010	1165.681852	-175.286512	-59.743494	1167.979323	-283.794289	-60.860121	1017.667320	-32.011195	-25.027824	985.111554	-411.440624	50.303958	909.698558	-4.094801	135.533658	886.168230	-13.901794	194.188398	824.003435	-20.202346	153.570749	918.784397	-19.006649	291.080326	766.467146	-37.132655	284.209190	759.197506	-153.408575	248.114435	657.429803	-11.404538	253.323962	569.663063	-26.995113	215.553607	492.358882	-32.507966	282.637106	568.042340	-52.432227	194.124057	389.276063	-50.732174	212.537390	411.417636	-132.851692	150.106835	348.335239	-97.843709	384.661198	404.825628	-77.513793	312.075777	352.407151	-19.346935	65.257122	893.089655	-420.339737	142.471093	856.575106	-403.729044	163.434413	883.672980	-390.800823	193.039109	783.755350	-398.380017	262.342389	700.202166	-380.590586	252.897792	687.737707	-261.562888	2.785502	423.127406	-382.551841	-51.452540	434.540416	-338.839549	32.058060	275.990875	-396.916267	167.793631	619.224403	-415.660233	136.034099	538.448419	-398.612066	66.274507	483.710398	-396.081939	159.702634	525.192436	-372.295146	105.974088	234.217712	-337.198428	-204.723524	834.355885	-223.547597	-78.303386	81.650596	-423.523108	-102.613577	80.249001	-24.326945	
752	3.7600	426.219664	1250.198695	-3.230598	462.952415	1271.856960	-312.527309	404.621190	1317.099374	-169.058312	398.135792	1164.322097	-170.486423	425.518922	978.766189	48.174786	632.850281	888.498794	-10.297876	491.248666	1019.645335	-434.080664	655.641327	877.689558	-368.894473	-114.136525	1103.579677	-229.309058	62.506767	1111.779561	-368.324069	54.187336	1125.045305	-71.521470	82.243079	1028.278370	-333.001449	48.059977	1043.702353	-75.211010	-78.999924	1163.179673	-172.847287	-60.641843	1165.957427	-281.675402	-60.191477	1013.338864	-30.897716	-25.227104	983.877341	-410.687829	49.979255	905.060359	-3.503861	134.942589	880.689126	-13.625506	192.779767	817.821201	-20.533836	153.534398	913.064663	-18.659081	288.972422	759.606457	-37.331133	282.767901	753.144786	-153.770616	247.040680	650.528955	-11.542916	252.965493	562.822245	-27.066031	215.821101	485.327547	-32.658624	282.347198	561.434248	-52.378395	195.698194	381.500546	-50.604661	214.474459	403.666116	-132.656953	151.679825	340.791168	-97.932696	386.533001	396.372064	-77.481485	313.701515	344.237218	-19.360538	66.248613	892.816687	-420.254891	144.027183	857.517524	-403.554019	164.525966	884.983587	-390.495906	195.742480	785.610109	-398.262940	266.570193	703.626426	-380.359286	256.293036	690.620613	-261.216827	2.686576	431.181818	-382.564891	-51.606605	442.963332	-338.866162	30.780443	283.768385	-396.983142	170.979849	624.529054	-415.578554	137.999114	544.161921	-398.586357	67.335975	490.543220	-396.096014	161.679517	530.302497	-372.302698	104.376767	241.485982	-337.190930	-204.691916	834.442636	-223.977993	-78.321511	81.604691	-423.538956	-102.724396	80.342458	-24.279529	
753	3.7650	426.859174	1251.062675	-2.854240	461.097875	1272.837888	-313.628531	403.560008	1318.328463	-169.297494	397.761676	1165.282451	-169.949375	425.733663	979.171167	49.564751	633.009762	888.528639	-10.127533	490.901215	1020.135481	-432.971092	655.824255	877.678472	-368.456686	-114.505843	1101.460448	-227.399485	61.894762	1111.197204	-366.702109	54.677907	1122.416808	-70.070092	81.798973	1027.561009	-332.195360	48.907616	1040.824467	-74.055949	-79.284370	1160.717069	-170.416168	-61.463224	1164.214915	-279.792570	-59.519683	1009.171144	-29.772916	-25.363044	982.728498	-409.949818	49.683078	900.660303	-2.984357	134.326804	875.157100	-13.407302	191.254485	811.586749	-20.910039	153.245216	907.384156	-18.140518	286.801813	752.735638	-37.620819	281.014561	746.698849	-154.002555	245.447143	643.756176	-11.594710	252.432215	556.005289	-27.034893	215.850284	478.081107	-32.826548	281.852117	554.852444	-52.340798	196.942361	373.674935	-50.493022	215.823497	396.082616	-132.451529	152.914327	333.652628	-97.791769	388.095849	387.896163	-77.427703	314.968166	335.967081	-19.402999	67.323389	892.578189	-420.173930	145.628450	858.620048	-403.238187	165.711210	886.430856	-390.208665	198.464774	787.545315	-397.941908	270.780036	707.378864	-380.327471	259.351218	693.556445	-261.322718	2.923385	439.307126	-382.628779	-51.349076	451.578311	-339.166900	29.851780	291.803536	-397.046919	174.280464	630.004891	-415.630818	140.175520	550.121201	-398.684443	68.687942	497.566027	-396.083236	163.605533	535.807685	-372.376283	103.134028	248.866944	-337.179721	-204.709858	834.439651	-223.968915	-78.326005	81.622188	-423.548688	-102.729318	80.351114	-24.283990	
754	3.7700	427.605150	1251.865283	-2.657947	459.135078	1273.872769	-314.739888	402.462007	1319.641761	-169.382801	397.630622	1166.883427	-170.093382	426.279070	979.937595	51.029829	633.218620	888.553001	-9.947061	490.913826	1020.595666	-431.329090	655.934866	877.644473	-368.324621	-114.795977	1099.411267	-225.437299	61.290754	1111.139850	-364.942341	55.227684	1119.866495	-68.491534	81.410520	1027.130299	-331.378943	49.846583	1038.109471	-72.867456	-79.466269	1158.552011	-167.836218	-62.382777	1162.315593	-277.885806	-58.837632	1005.107112	-28.574038	-25.428667	981.645081	-409.218314	49.489146	896.315484	-2.548083	133.695603	869.528296	-13.286918	189.643268	805.269227	-21.300436	152.788370	901.887427	-17.378215	284.410979	745.817073	-37.706549	279.250618	739.998613	-154.156352	243.791909	636.805655	-11.736629	251.512382	549.190114	-27.118241	215.647263	470.950222	-32.925889	281.195933	548.209541	-52.293253	197.943262	366.271700	-50.251163	217.243139	388.521984	-132.190030	153.861595	326.584388	-97.703387	389.352400	379.256919	-77.431303	315.934456	327.880212	-19.369758	68.467792	892.427745	-419.943302	147.323879	860.008626	-402.844814	166.919067	888.140589	-389.776305	201.416312	789.795772	-397.613908	275.036448	711.442672	-380.186351	262.910544	696.741887	-261.384460	3.520489	447.465102	-382.739265	-50.772613	460.068735	-339.272989	29.300214	299.769356	-397.100766	177.685768	635.687362	-415.678940	142.482317	556.144312	-398.878369	70.273096	504.673351	-396.197283	165.765180	541.610005	-372.468502	102.359831	256.720691	-337.294274	-204.731323	834.433936	-223.952118	-78.303339	81.618543	-423.535397	-102.716589	80.322168	-24.277870	
755	3.7750	428.632517	1252.821604	-2.529836	457.179433	1275.070513	-315.912481	401.371764	1320.981031	-169.505153	397.514080	1168.493293	-170.249453	427.054652	980.997484	52.554113	633.437013	888.544046	-9.759369	490.890366	1021.130944	-430.004981	656.075171	877.578217	-368.031979	-114.965648	1097.289796	-223.319575	60.693085	1110.996162	-363.303013	55.813069	1117.523842	-66.948742	81.101318	1026.807299	-330.453593	50.810394	1035.563627	-71.766079	-79.649390	1156.186940	-165.029690	-63.127746	1160.846044	-275.935433	-58.151464	1001.425388	-27.341238	-25.414228	980.724665	-408.558098	49.340861	892.028469	-2.306714	133.062857	864.105314	-13.162591	187.967404	798.932147	-21.766435	152.660401	896.018317	-16.972813	281.974366	738.761481	-37.903608	277.284650	733.217605	-154.236584	241.772768	629.821877	-11.875905	250.454675	542.310917	-27.063986	215.314280	463.672374	-32.930557	280.220195	541.495854	-51.831088	198.529952	358.625147	-50.012509	218.067358	381.125699	-131.769466	154.432087	319.674986	-97.531828	390.341904	370.536479	-77.384949	316.534993	319.663407	-19.336460	69.738429	892.475836	-419.491698	149.138110	861.629520	-402.319182	168.211551	890.158426	-389.245478	204.607617	792.495858	-397.178774	279.359668	716.137247	-380.105871	267.645697	700.753907	-261.088798	4.445950	455.648035	-382.896078	-49.947855	468.398649	-339.289599	29.149660	307.811059	-397.127530	181.228057	641.637352	-415.745739	145.283919	562.703927	-399.491160	72.174058	511.915871	-396.432898	168.102967	547.748703	-372.701972	101.895666	264.068650	-337.296934	-204.747215	834.433527	-223.924702	-78.282377	81.643183	-423.521018	-102.583452	80.252895	-24.311304	
756	3.7800	429.775243	1253.868624	-2.663003	454.997589	1276.302167	-317.277282	400.315184	1322.332099	-169.673995	397.412250	1170.221003	-170.450764	428.232688	982.249409	54.004754	633.660833	888.489953	-9.530327	491.062145	1021.755751	-428.679595	656.289923	877.629186	-367.742954	-115.087418	1095.645561	-221.380716	60.052467	1110.970747	-361.694404	56.386006	1115.357468	-65.344039	80.898086	1026.683993	-329.532648	51.934710	1033.213798	-70.646035	-79.676205	1154.187772	-162.427516	-63.729071	1159.977338	-273.734604	-57.447795	998.011895	-26.144227	-25.413039	979.855273	-407.837154	49.276387	887.931756	-2.039910	132.450645	858.583339	-12.989312	186.190018	792.566614	-22.241893	152.563933	890.301533	-16.576598	279.322771	731.765858	-38.161199	275.237894	726.254099	-154.372322	239.678043	622.702670	-12.099392	249.166574	535.321560	-26.834308	214.837268	456.280634	-32.842635	278.920121	534.758256	-51.670677	198.809906	351.259963	-49.628611	218.746506	373.718664	-131.417120	154.647913	312.858046	-97.311975	391.034647	361.693786	-77.356520	316.850743	311.322516	-19.363438	71.007773	892.867498	-418.717207	151.081363	863.701554	-401.679936	169.582514	892.619096	-388.562996	208.007674	795.761550	-396.701314	283.686859	721.368085	-380.006469	272.135101	706.049313	-260.840630	5.788994	463.827838	-383.106765	-48.400024	477.161635	-339.840892	29.387803	315.934784	-397.110413	184.934540	647.639198	-415.837539	148.062713	569.036634	-399.494073	74.303175	519.232100	-396.560591	170.641159	553.814705	-372.684036	101.874569	271.760529	-337.177073	-204.746361	834.416608	-223.908813	-78.266142	81.635065	-423.528745	-102.689028	80.350576	-24.233307	
